<svg width="32" height="25" viewBox="0 0 32 25" fill="none" xmlns="http://www.w3.org/2000/svg">
<path d="M24.2437 10.6094C20.3886 10.6094 17.2687 13.6286 17.2687 17.3594C17.2687 21.0902 20.3886 24.1094 24.2437 24.1094C28.0989 24.1094 31.2187 21.0902 31.2187 17.3594C31.2187 13.6286 28.0989 10.6094 24.2437 10.6094ZM27.3437 17.6542C27.3437 17.9045 27.1321 18.1094 26.8734 18.1094H23.9396C23.6809 18.1094 23.4692 17.9045 23.4692 17.6542V14.065C23.4692 13.8147 23.6809 13.6098 23.9396 13.6098H24.5484C24.8071 13.6098 25.0187 13.8147 25.0187 14.065V16.6094H26.8734C27.1321 16.6094 27.3437 16.8142 27.3437 17.0645V17.6542ZM24.2437 9.10938C24.5053 9.10938 24.763 9.12484 25.0187 9.14734V6.85938C25.0187 5.65937 23.9337 4.60938 22.6937 4.60938H18.8187V2.35938C18.8187 1.15937 17.7337 0.109375 16.4937 0.109375H8.74375C7.50375 0.109375 6.41875 1.15937 6.41875 2.35938V4.60938H2.54375C1.30375 4.60938 0.21875 5.65937 0.21875 6.85938V10.6094H19.3574C20.7427 9.66766 22.4259 9.10938 24.2437 9.10938ZM15.7187 4.60938H9.51875V3.10938H15.7187V4.60938ZM16.0491 15.1094H10.2937C9.86556 15.1094 9.51875 14.7738 9.51875 14.3594V12.1094H0.21875V18.8594C0.21875 20.0594 1.30375 21.1094 2.54375 21.1094H16.6599C16.0627 19.9825 15.7187 18.7103 15.7187 17.3594C15.7187 16.5784 15.8389 15.8256 16.0491 15.1094Z" fill="white"/>
</svg>
