<svg width="57" height="57" viewBox="0 0 57 57" fill="none" xmlns="http://www.w3.org/2000/svg">
<path d="M28.2642 0.5C12.7998 0.5 0.26416 13.0356 0.26416 28.5C0.26416 43.9644 12.7998 56.5 28.2642 56.5C43.7285 56.5 56.2642 43.9644 56.2642 28.5C56.2642 13.0356 43.7285 0.5 28.2642 0.5ZM37.555 40.8742C37.1146 41.3123 36.6529 41.7718 36.278 42.1477C35.9405 42.4865 35.7022 42.9042 35.5814 43.3569C35.4109 43.996 35.2732 44.6418 35.0429 45.2616L33.0795 50.5511C31.5259 50.8898 29.9182 51.0806 28.2642 51.0806V47.9894C28.455 46.5645 27.4016 43.8955 25.7092 42.2031C25.0317 41.5256 24.6513 40.6066 24.6513 39.6481V36.034C24.6513 34.7198 23.9434 33.5118 22.7929 32.8761C21.1704 31.9785 18.8627 30.7242 17.2821 29.9282C15.9859 29.2756 14.7869 28.4447 13.7087 27.4726L13.6184 27.3913C12.8473 26.6953 12.1627 25.9091 11.5793 25.0497C10.5203 23.495 8.79513 20.9377 7.674 19.2758C9.98513 14.1387 14.1501 10.0132 19.3256 7.7721L22.0364 9.12806C23.2377 9.72871 24.6513 8.85597 24.6513 7.51242V6.23661C25.5534 6.09097 26.4713 5.99839 27.405 5.96339L30.6001 9.15855C31.3058 9.86419 31.3058 11.0079 30.6001 11.7135L30.0706 12.2419L28.9032 13.4094C28.5509 13.7616 28.5509 14.334 28.9032 14.6863L29.4327 15.2158C29.785 15.5681 29.785 16.1405 29.4327 16.4927L28.5295 17.396C28.3599 17.5652 28.1301 17.6603 27.8904 17.6602H26.8754C26.6406 17.6602 26.4148 17.7516 26.2454 17.9165L25.1254 19.006C24.9882 19.1397 24.8969 19.3135 24.8648 19.5024C24.8328 19.6914 24.8616 19.8856 24.9471 20.0571L26.7072 23.5785C27.0075 24.1792 26.5706 24.886 25.9 24.886H25.2632C25.0453 24.886 24.8353 24.8069 24.6716 24.6647L23.6238 23.7547C23.3867 23.549 23.1002 23.4086 22.7924 23.3472C22.4845 23.2858 22.166 23.3056 21.8682 23.4047L18.349 24.5777C18.0803 24.6673 17.8466 24.8392 17.6811 25.069C17.5155 25.2988 17.4265 25.5748 17.4266 25.8581C17.4266 26.3695 17.7156 26.8358 18.1729 27.065L19.4238 27.6905C20.4863 28.2223 21.6582 28.4989 22.8459 28.4989C24.0337 28.4989 25.3964 31.58 26.4588 32.1118H33.9951C34.9537 32.1118 35.8716 32.4923 36.5501 33.1697L38.0958 34.7153C38.7415 35.3613 39.1042 36.2373 39.104 37.1506C39.1038 37.8427 38.9668 38.528 38.701 39.167C38.4351 39.806 38.0457 40.3861 37.555 40.8742ZM47.3448 30.5605C46.6911 30.3968 46.1209 29.996 45.7472 29.4348L43.7172 26.3898C43.4202 25.945 43.2617 25.422 43.2617 24.8871C43.2617 24.3522 43.4202 23.8292 43.7172 23.3844L45.929 20.0673C46.1909 19.6755 46.55 19.3571 46.9722 19.1471L48.4377 18.4144C49.9642 21.4537 50.8448 24.8724 50.8448 28.5C50.8448 29.4789 50.7613 30.4374 50.6393 31.3835L47.3448 30.5605Z" fill="#0090E0"/>
</svg>
