<svg width="56" height="57" viewBox="0 0 56 57" fill="none" xmlns="http://www.w3.org/2000/svg">
<path d="M28.0062 14.1423C20.0607 14.1423 13.6518 20.5527 13.6518 28.5C13.6518 36.4473 20.0607 42.8577 28.0062 42.8577C35.9518 42.8577 42.3607 36.4473 42.3607 28.5C42.3607 20.5527 35.9518 14.1423 28.0062 14.1423ZM28.0062 37.8344C22.8716 37.8344 18.674 33.6483 18.674 28.5C18.674 23.3517 22.8591 19.1656 28.0062 19.1656C33.1534 19.1656 37.3385 23.3517 37.3385 28.5C37.3385 33.6483 33.1409 37.8344 28.0062 37.8344ZM46.296 13.555C46.296 15.4169 44.7969 16.9039 42.9479 16.9039C41.0865 16.9039 39.5998 15.4044 39.5998 13.555C39.5998 11.7056 41.0989 10.2061 42.9479 10.2061C44.7969 10.2061 46.296 11.7056 46.296 13.555ZM55.8032 16.9539C55.5909 12.4679 54.5664 8.4942 51.2808 5.22029C48.0076 1.94639 44.0348 0.921734 39.5498 0.696809C34.9274 0.434397 21.0726 0.434397 16.4502 0.696809C11.9777 0.909238 8.00491 1.93389 4.71924 5.2078C1.43358 8.4817 0.42164 12.4554 0.196765 16.9414C-0.0655884 21.5648 -0.0655884 35.4227 0.196765 40.0461C0.409147 44.5321 1.43358 48.5058 4.71924 51.7797C8.00491 55.0536 11.9652 56.0783 16.4502 56.3032C21.0726 56.5656 34.9274 56.5656 39.5498 56.3032C44.0348 56.0908 48.0076 55.0661 51.2808 51.7797C54.5539 48.5058 55.5784 44.5321 55.8032 40.0461C56.0656 35.4227 56.0656 21.5773 55.8032 16.9539ZM49.8316 45.007C48.8571 47.4562 46.9707 49.343 44.5095 50.3302C40.8241 51.7922 32.079 51.4548 28.0062 51.4548C23.9335 51.4548 15.1759 51.7797 11.503 50.3302C9.05432 49.3555 7.16788 47.4686 6.18093 45.007C4.71924 41.3207 5.05655 32.5736 5.05655 28.5C5.05655 24.4264 4.73173 15.6668 6.18093 11.993C7.15538 9.54385 9.04183 7.65698 11.503 6.66981C15.1884 5.2078 23.9335 5.54519 28.0062 5.54519C32.079 5.54519 40.8366 5.22029 44.5095 6.66981C46.9582 7.64448 48.8446 9.53135 49.8316 11.993C51.2933 15.6793 50.9559 24.4264 50.9559 28.5C50.9559 32.5736 51.2933 41.3332 49.8316 45.007Z" fill="#306989"/>
</svg>
