<svg width="57" height="57" viewBox="0 0 57 57" fill="none" xmlns="http://www.w3.org/2000/svg">
<path d="M52.2642 0.5H4.25166C2.05166 0.5 0.26416 2.3125 0.26416 4.5375V52.4625C0.26416 54.6875 2.05166 56.5 4.25166 56.5H52.2642C54.4642 56.5 56.2642 54.6875 56.2642 52.4625V4.5375C56.2642 2.3125 54.4642 0.5 52.2642 0.5ZM17.1892 48.5H8.88916V21.775H17.2017V48.5H17.1892ZM13.0392 18.125C10.3767 18.125 8.22666 15.9625 8.22666 13.3125C8.22666 10.6625 10.3767 8.5 13.0392 8.5C15.6892 8.5 17.8517 10.6625 17.8517 13.3125C17.8517 15.975 15.7017 18.125 13.0392 18.125ZM48.3017 48.5H40.0017V35.5C40.0017 32.4 39.9392 28.4125 35.6892 28.4125C31.3642 28.4125 30.7017 31.7875 30.7017 35.275V48.5H22.4017V21.775H30.3642V25.425H30.4767C31.5892 23.325 34.3017 21.1125 38.3392 21.1125C46.7392 21.1125 48.3017 26.65 48.3017 33.85V48.5Z" fill="#306989"/>
</svg>
