<svg width="75" height="50" viewBox="0 0 75 50" fill="none" xmlns="http://www.w3.org/2000/svg">
<path d="M73.4328 7.82331C72.5702 4.74388 70.0288 2.31862 66.802 1.49557C60.9532 0 37.5 0 37.5 0C37.5 0 14.047 0 8.19799 1.49557C4.97117 2.31875 2.42976 4.74388 1.5672 7.82331C0 13.4049 0 25.0505 0 25.0505C0 25.0505 0 36.6961 1.5672 42.2777C2.42976 45.3572 4.97117 47.6814 8.19799 48.5044C14.047 50 37.5 50 37.5 50C37.5 50 60.953 50 66.802 48.5044C70.0288 47.6814 72.5702 45.3572 73.4328 42.2777C75 36.6961 75 25.0505 75 25.0505C75 25.0505 75 13.4049 73.4328 7.82331ZM29.8295 35.6238V14.4772L49.4317 25.0508L29.8295 35.6238Z" fill="#0090E0"/>
</svg>
