<svg width="96" height="128" viewBox="0 0 96 128" fill="none" xmlns="http://www.w3.org/2000/svg">
<path id="pointer" d="M33.913 0C39.8192 0 44.8695 5.1625 44.8695 11.2V36.1628C49.1315 32.0778 57.311 31.5762 62.6055 37.7375C68.3127 34.1655 75.8597 37.2007 78.1842 41.85C90.4695 39.6065 96 47.3365 96 60C96 60.6865 95.9492 63.319 95.9512 64C95.9932 79.4928 88.185 83.2235 86.3725 94.9327C85.9207 97.851 83.3998 100 80.4465 100H37.5653L37.565 99.9995C32.9735 99.9967 28.5928 97.3477 26.6038 92.8835C23.3553 85.662 14.3443 69.0305 7.273 66C2.72425 64.0508 0.00200105 60.654 1.04631e-06 56C-0.00349895 47.4445 8.7745 41.562 16.727 44.9702C18.8168 45.866 20.8945 47.0482 22.9565 48.5085V11.2C22.9565 5.3375 28.0922 0 33.913 0ZM34 104H82C85.3138 104 88 106.686 88 110V122C88 125.314 85.3138 128 82 128H34C30.6862 128 28 125.314 28 122V110C28 106.686 30.6862 104 34 104ZM76 111C73.2385 111 71 113.239 71 116C71 118.761 73.2385 121 76 121C78.7615 121 81 118.761 81 116C81 113.239 78.7615 111 76 111Z" fill="#22252A"/>
</svg>
