<svg width="70" height="57" viewBox="0 0 70 57" fill="none" xmlns="http://www.w3.org/2000/svg">
<path d="M62.8319 14.4562C62.8762 15.0687 62.8762 15.6813 62.8762 16.2937C62.8762 34.9749 48.4954 56.5 22.2116 56.5C14.114 56.5 6.59176 54.1811 0.26416 50.1563C1.41467 50.2875 2.52078 50.3313 3.71555 50.3313C10.397 50.3313 16.5477 48.1001 21.4593 44.2938C15.176 44.1625 9.91035 40.0938 8.09613 34.4937C8.98118 34.6249 9.86609 34.7124 10.7954 34.7124C12.0786 34.7124 13.3619 34.5374 14.5565 34.2313C8.00773 32.9187 3.09596 27.2312 3.09596 20.3625V20.1875C4.99859 21.2375 7.21121 21.8938 9.55623 21.9812C5.70657 19.4436 3.1845 15.1124 3.1845 10.2124C3.1845 7.58745 3.89235 5.1812 5.13139 3.08118C12.167 11.6562 22.7425 17.2561 34.601 17.8687C34.3798 16.8187 34.247 15.725 34.247 14.6313C34.247 6.84368 40.6189 0.5 48.5394 0.5C52.6545 0.5 56.3714 2.20625 58.9821 4.9625C62.2122 4.35003 65.3096 3.16872 68.0531 1.55001C66.991 4.83133 64.7344 7.58759 61.7698 9.33746C64.646 9.03136 67.4337 8.24369 70 7.15005C68.0534 9.94993 65.6196 12.4436 62.8319 14.4562Z" fill="#306989"/>
</svg>
