<svg width="117" height="55" viewBox="0 0 117 55" fill="none" xmlns="http://www.w3.org/2000/svg">
<path d="M37.9264 1.00864H45.8125L26.6501 30.1207V54H19.759V30.1207L0.596607 1.00864H8.48267L23.1861 24.4457L37.9264 1.00864Z" fill="#2A2722"/>
<path d="M55.7622 1.00864H62.6901V54H55.7622V1.00864Z" fill="#0090E0"/>
<path d="M116.529 51.1625C113.606 52.3663 110.571 53.2876 107.427 53.9263C104.307 54.565 101.273 54.8844 98.3248 54.8844C94.4923 54.8844 91.0897 54.3439 88.1171 53.263C85.1691 52.182 82.6878 50.536 80.6733 48.325C78.6588 46.1139 77.1233 43.3379 76.0669 39.9967C75.0351 36.631 74.5192 32.6757 74.5192 28.1308C74.5192 23.1928 75.0474 18.9549 76.1038 15.4173C77.1847 11.8796 78.7447 8.99296 80.7838 6.75735C82.8229 4.49717 85.3287 2.83889 88.3014 1.7825C91.2986 0.726115 94.7134 0.197921 98.5459 0.197921C100.929 0.197921 103.435 0.443592 106.063 0.934935C108.692 1.40171 111.394 2.07731 114.171 2.96173L112.217 8.48934C109.736 7.65405 107.402 7.02759 105.216 6.60995C103.054 6.19231 100.867 5.98349 98.6564 5.98349C95.8066 5.98349 93.3131 6.40113 91.1757 7.23641C89.0384 8.0717 87.2573 9.36147 85.8324 11.1057C84.432 12.85 83.3757 15.0733 82.6632 17.7757C81.9753 20.4781 81.6314 23.6964 81.6314 27.4306C81.6314 31.1157 81.9508 34.3217 82.5895 37.0487C83.2528 39.7756 84.2601 42.0358 85.6113 43.8292C86.9625 45.598 88.6822 46.9247 90.7704 47.8091C92.8586 48.6689 95.3276 49.0989 98.1774 49.0989C100.192 49.0989 102.219 48.89 104.258 48.4724C106.297 48.0547 108.164 47.5634 109.859 46.9984V32.3318H100.978V26.7673H116.529V51.1625Z" fill="#DE8104"/>
</svg>
