<svg width="167" height="145" viewBox="0 0 167 145" fill="none" xmlns="http://www.w3.org/2000/svg">
<rect width="166.408" height="144.408" rx="72.2041" fill="#EFF247"/>
<path d="M50.4954 98.3705C50.4954 99.5065 49.5076 100.075 47.5319 100.075C45.5562 100.075 44.5684 99.5065 44.5684 98.3705V81.4044C42.0494 81.0092 40.1725 80.0214 38.9377 78.4409C37.7029 76.8603 36.6904 74.5142 35.9001 71.4025L30.1212 48.5834C29.6767 47.0029 29.4544 46.0891 29.4544 45.8422C29.4544 44.9531 30.3682 44.5086 32.1957 44.5086C34.0726 44.5086 35.1345 45.0766 35.3815 46.2126L41.679 70.5875C42.2223 72.662 42.8644 74.1438 43.6052 75.0328C44.3955 75.9219 45.7044 76.3664 47.5319 76.3664C49.3594 76.3664 50.6436 75.9219 51.3845 75.0328C52.1748 74.1438 52.8415 72.662 53.3849 70.5875L59.6823 46.2126C59.9293 45.0766 60.9665 44.5086 62.794 44.5086C64.6709 44.5086 65.6094 44.9531 65.6094 45.8422C65.6094 46.0891 65.3871 47.0029 64.9426 48.5834L59.1637 71.4025C58.3734 74.5142 57.3609 76.8603 56.1261 78.4409C54.8913 80.0214 53.0144 81.0092 50.4954 81.4044V98.3705ZM83.8408 46.2126V98.3705C83.8408 99.5065 82.853 100.075 80.8773 100.075C78.9016 100.075 77.9138 99.5065 77.9138 98.3705V46.2126C77.9138 45.0766 78.9016 44.5086 80.8773 44.5086C82.853 44.5086 83.8408 45.0766 83.8408 46.2126ZM128.539 89.8504V82.5898C128.539 80.219 128.119 78.5396 127.279 77.5518C126.489 76.564 124.785 76.07 122.167 76.07H116.463C115.475 76.07 114.981 75.2057 114.981 73.477C114.981 71.7482 115.475 70.8839 116.463 70.8839H122.167C126.514 70.8839 129.65 71.7729 131.577 73.5511C133.503 75.3292 134.466 78.3421 134.466 82.5898V89.1095C134.466 93.2091 132.861 96.1973 129.65 98.0742C126.489 99.9017 122.291 100.815 117.055 100.815C105.794 100.815 100.163 96.9135 100.163 89.1095V55.4736C100.163 51.3741 101.694 48.4105 104.757 46.583C107.868 44.7061 111.943 43.7677 116.981 43.7677C127.897 43.7677 133.355 47.6697 133.355 55.4736V59.5484C133.355 60.6844 132.367 61.2524 130.391 61.2524C128.416 61.2524 127.428 60.6844 127.428 59.5484V54.7327C127.428 50.8801 123.871 48.9538 116.759 48.9538C109.647 48.9538 106.09 50.8801 106.09 54.7327V89.8504C106.09 93.703 109.819 95.6293 117.278 95.6293C124.785 95.6293 128.539 93.703 128.539 89.8504Z" fill="#202020"/>
</svg>
