<svg width="204" height="75" viewBox="0 0 204 75" fill="none" xmlns="http://www.w3.org/2000/svg">
<g filter="url(#filter0_d_596_536)">
<path d="M20.0156 10.5312H23.3594L15.2344 22.875V33H12.3125V22.875L4.1875 10.5312H7.53125L13.7656 20.4688L20.0156 10.5312ZM33.0625 16.3906C33.5729 16.3906 34.1042 16.4323 34.6562 16.5156C35.2083 16.5885 35.75 16.7344 36.2812 16.9531C36.8125 17.1823 37.3125 17.4948 37.7812 17.8906C38.2604 18.276 38.6823 18.7812 39.0469 19.4062C39.4115 20.0417 39.6979 20.8073 39.9062 21.7031C40.1146 22.5885 40.2188 23.6458 40.2188 24.875C40.2188 26.1042 40.1146 27.1667 39.9062 28.0625C39.6979 28.9479 39.4115 29.7031 39.0469 30.3281C38.6823 30.9635 38.2604 31.4792 37.7812 31.875C37.3125 32.2708 36.8125 32.5781 36.2812 32.7969C35.75 33.026 35.2083 33.1771 34.6562 33.25C34.1042 33.3333 33.5729 33.375 33.0625 33.375C32.5625 33.375 32.0365 33.3333 31.4844 33.25C30.9427 33.1771 30.4062 33.026 29.875 32.7969C29.3438 32.5781 28.8438 32.2708 28.375 31.875C27.9062 31.4792 27.4896 30.9635 27.125 30.3281C26.7604 29.7031 26.474 28.9479 26.2656 28.0625C26.0573 27.1667 25.9531 26.1042 25.9531 24.875C25.9531 23.6458 26.0573 22.5885 26.2656 21.7031C26.474 20.8073 26.7604 20.0417 27.125 19.4062C27.4896 18.7812 27.9062 18.276 28.375 17.8906C28.8438 17.4948 29.3438 17.1823 29.875 16.9531C30.4062 16.7344 30.9427 16.5885 31.4844 16.5156C32.026 16.4323 32.5521 16.3906 33.0625 16.3906ZM33.0625 18.5938C32.4688 18.5938 31.9062 18.6875 31.375 18.875C30.8542 19.0625 30.3958 19.3906 30 19.8594C29.5938 20.3385 29.2708 20.9792 29.0312 21.7812C28.7917 22.5833 28.6719 23.6146 28.6719 24.875C28.6719 26.125 28.7917 27.1562 29.0312 27.9688C29.2708 28.7708 29.5938 29.4062 30 29.875C30.3958 30.3542 30.8542 30.6875 31.375 30.875C31.9062 31.0521 32.4688 31.1406 33.0625 31.1406C33.6667 31.1406 34.2344 31.0521 34.7656 30.875C35.3073 30.6875 35.7812 30.3542 36.1875 29.875C36.5938 29.4062 36.9115 28.7708 37.1406 27.9688C37.3802 27.1562 37.5 26.125 37.5 24.875C37.5 23.6146 37.3802 22.5833 37.1406 21.7812C36.9115 20.9792 36.5938 20.3385 36.1875 19.8594C35.7812 19.3906 35.3073 19.0625 34.7656 18.875C34.2344 18.6875 33.6667 18.5938 33.0625 18.5938ZM57.8594 32.7188L55.2656 33.2969C55.0677 32.6719 54.9271 32.0677 54.8438 31.4844C54.8021 31.2135 54.75 30.6615 54.6875 29.8281H54.3594C53.7865 30.8802 53.0781 31.7188 52.2344 32.3438C51.3073 33.0312 50.3281 33.375 49.2969 33.375C47.7448 33.375 46.5625 33 45.75 32.25C45.0521 31.6146 44.5677 30.6406 44.2969 29.3281C44.1198 28.4323 44.0312 27.099 44.0312 25.3281V16.75H46.7188V26.0781C46.7188 27.6302 46.8698 28.7396 47.1719 29.4062C47.6198 30.3958 48.5208 30.8906 49.875 30.8906C50.8333 30.8906 51.7708 30.4323 52.6875 29.5156C53.3021 28.901 53.9583 28 54.6562 26.8125V16.75H57.3438V26.7812C57.3438 28.1667 57.3802 29.3698 57.4531 30.3906C57.4948 31.026 57.6302 31.8021 57.8594 32.7188ZM61.1406 10.5312H77.9688V12.9375H71.0625V33H68.125V12.9375H61.1406V10.5312ZM95.2969 32.7188L92.7031 33.2969C92.5052 32.6719 92.3646 32.0677 92.2812 31.4844C92.2396 31.2135 92.1875 30.6615 92.125 29.8281H91.7969C91.224 30.8802 90.5156 31.7188 89.6719 32.3438C88.7448 33.0312 87.7656 33.375 86.7344 33.375C85.1823 33.375 84 33 83.1875 32.25C82.4896 31.6146 82.0052 30.6406 81.7344 29.3281C81.5573 28.4323 81.4688 27.099 81.4688 25.3281V16.75H84.1562V26.0781C84.1562 27.6302 84.3073 28.7396 84.6094 29.4062C85.0573 30.3958 85.9583 30.8906 87.3125 30.8906C88.2708 30.8906 89.2083 30.4323 90.125 29.5156C90.7396 28.901 91.3958 28 92.0938 26.8125V16.75H94.7812V26.7812C94.7812 28.1667 94.8177 29.3698 94.8906 30.3906C94.9323 31.026 95.0677 31.8021 95.2969 32.7188ZM100.078 10.5H102.766V19.8594L103.094 19.8906C103.583 18.8073 104.161 17.9844 104.828 17.4219C105.599 16.7344 106.531 16.3906 107.625 16.3906C109.531 16.3906 110.99 17.1927 112 18.7969C112.906 20.2865 113.359 22.2083 113.359 24.5625C113.359 27.4271 112.677 29.6354 111.312 31.1875C110.01 32.6458 108.083 33.375 105.531 33.375C104.135 33.375 102.318 33.2083 100.078 32.875V10.5ZM102.609 23.4062V30.7812C103.568 30.9792 104.542 31.0781 105.531 31.0781C107.219 31.0781 108.484 30.5833 109.328 29.5938C110.203 28.5729 110.641 27.0573 110.641 25.0469C110.641 23.224 110.443 21.8177 110.047 20.8281C109.526 19.526 108.641 18.875 107.391 18.875C106.297 18.875 105.333 19.3333 104.5 20.25C103.917 20.875 103.286 21.9271 102.609 23.4062ZM129.391 32.0938C128.234 32.5521 127.146 32.8802 126.125 33.0781C125.115 33.276 124.208 33.375 123.406 33.375C122.177 33.375 121.104 33.1823 120.188 32.7969C119.271 32.401 118.505 31.849 117.891 31.1406C117.286 30.4323 116.828 29.5885 116.516 28.6094C116.214 27.6198 116.062 26.5312 116.062 25.3438C116.062 24.6146 116.115 23.8854 116.219 23.1562C116.323 22.4271 116.49 21.7344 116.719 21.0781C116.948 20.4115 117.245 19.7917 117.609 19.2188C117.984 18.6458 118.438 18.151 118.969 17.7344C119.5 17.3177 120.12 16.9896 120.828 16.75C121.536 16.5104 122.344 16.3906 123.25 16.3906C125.573 16.3906 127.323 17.1198 128.5 18.5781C129.677 20.026 130.266 22.1042 130.266 24.8125V25.6719H118.828C118.828 26.5469 118.922 27.3229 119.109 28C119.297 28.6667 119.583 29.2344 119.969 29.7031C120.365 30.1615 120.859 30.5104 121.453 30.75C122.057 30.9896 122.771 31.1094 123.594 31.1094C124.052 31.1094 124.505 31.0781 124.953 31.0156C125.411 30.9427 125.854 30.8542 126.281 30.75C126.708 30.6354 127.115 30.5104 127.5 30.375C127.896 30.2396 128.266 30.1094 128.609 29.9844L129.391 32.0938ZM127.562 23.5156C127.479 21.8281 127.073 20.599 126.344 19.8281C125.625 19.0469 124.594 18.6562 123.25 18.6562C121.906 18.6562 120.88 19.0469 120.172 19.8281C119.474 20.599 119.052 21.8281 118.906 23.5156H127.562Z" fill="black"/>
</g>
<g filter="url(#filter1_d_596_536)">
<path d="M170.5 11C155.313 11 143 23.3177 143 38.5C143 53.6912 155.313 66 170.5 66C185.687 66 198 53.6912 198 38.5C198 23.3177 185.687 11 170.5 11ZM170.5 23.1976C173.072 23.1976 175.157 25.2827 175.157 27.8548C175.157 30.427 173.072 32.5121 170.5 32.5121C167.928 32.5121 165.843 30.427 165.843 27.8548C165.843 25.2827 167.928 23.1976 170.5 23.1976ZM176.71 51.3629C176.71 52.0978 176.114 52.6935 175.379 52.6935H165.621C164.886 52.6935 164.29 52.0978 164.29 51.3629V48.7016C164.29 47.9668 164.886 47.371 165.621 47.371H166.952V40.2742H165.621C164.886 40.2742 164.29 39.6784 164.29 38.9435V36.2823C164.29 35.5474 164.886 34.9516 165.621 34.9516H172.718C173.453 34.9516 174.048 35.5474 174.048 36.2823V47.371H175.379C176.114 47.371 176.71 47.9668 176.71 48.7016V51.3629Z" fill="url(#paint0_linear_596_536)"/>
</g>
<g filter="url(#filter2_d_596_536)">
<path d="M50.6406 62.7969C49.401 63.3073 48.1146 63.6979 46.7812 63.9688C45.4583 64.2396 44.1719 64.375 42.9219 64.375C41.2969 64.375 39.8542 64.1458 38.5938 63.6875C37.3438 63.2292 36.2917 62.5312 35.4375 61.5938C34.5833 60.6562 33.9323 59.4792 33.4844 58.0625C33.0469 56.6354 32.8281 54.9583 32.8281 53.0312C32.8281 50.9375 33.0521 49.1406 33.5 47.6406C33.9583 46.1406 34.6198 44.9167 35.4844 43.9688C36.349 43.0104 37.4115 42.3073 38.6719 41.8594C39.9427 41.4115 41.3906 41.1875 43.0156 41.1875C44.026 41.1875 45.0885 41.2917 46.2031 41.5C47.3177 41.6979 48.4635 41.9844 49.6406 42.3594L48.8125 44.7031C47.7604 44.349 46.7708 44.0833 45.8438 43.9062C44.9271 43.7292 44 43.6406 43.0625 43.6406C41.8542 43.6406 40.7969 43.8177 39.8906 44.1719C38.9844 44.526 38.2292 45.0729 37.625 45.8125C37.0312 46.5521 36.5833 47.4948 36.2812 48.6406C35.9896 49.7865 35.8438 51.151 35.8438 52.7344C35.8438 54.2969 35.9792 55.6562 36.25 56.8125C36.5312 57.9688 36.9583 58.9271 37.5312 59.6875C38.1042 60.4375 38.8333 61 39.7188 61.375C40.6042 61.7396 41.651 61.9219 42.8594 61.9219C43.7135 61.9219 44.5729 61.8333 45.4375 61.6562C46.3021 61.4792 47.0938 61.2708 47.8125 61.0312V54.8125H44.0469V52.4531H50.6406V62.7969ZM56.4531 50.625L55.7656 48.4375C57.5156 47.7396 59.349 47.3906 61.2656 47.3906C62.9427 47.3906 64.224 47.6719 65.1094 48.2344C66.1198 48.8802 66.625 49.9792 66.625 51.5312V57.9219C66.625 58.776 66.6354 59.651 66.6562 60.5469C66.6667 61.0781 66.7188 61.6302 66.8125 62.2031C66.8958 62.7448 67.0052 63.2604 67.1406 63.75L64.5781 64.3125C64.3385 63.6146 64.1875 62.8333 64.125 61.9688L63.8125 61.9375C62.5208 63.5625 60.875 64.375 58.875 64.375C57.4167 64.375 56.2448 63.974 55.3594 63.1719C54.474 62.3594 54.0312 61.2188 54.0312 59.75C54.0312 58.6562 54.2708 57.7604 54.75 57.0625C55.2396 56.3646 55.9271 55.776 56.8125 55.2969C58.2083 54.5365 60.1615 54.1562 62.6719 54.1562C63.0052 54.1562 63.4531 54.1667 64.0156 54.1875V51.8125C64.0156 51.0625 63.7865 50.5208 63.3281 50.1875C62.8698 49.8542 62.151 49.6875 61.1719 49.6875C59.7448 49.6875 58.1719 50 56.4531 50.625ZM64.0156 59.4375V56.1562C63.7344 56.1354 63.3229 56.125 62.7812 56.125C61.8646 56.125 61.0208 56.2031 60.25 56.3594C59.1042 56.5885 58.2135 56.9531 57.5781 57.4531C56.9531 57.9427 56.6406 58.651 56.6406 59.5781C56.6406 61.2448 57.5469 62.0781 59.3594 62.0781C60.2969 62.0781 61.1719 61.8281 61.9844 61.3281C62.651 60.9115 63.3281 60.2812 64.0156 59.4375ZM73.2188 44.0312H75.9062V47.75H81.375V50.0156H75.9062V59.3438C75.9062 59.9688 75.9219 60.4479 75.9531 60.7812C75.9948 61.1042 76.0885 61.3594 76.2344 61.5469C76.5052 61.9219 77.0521 62.1094 77.875 62.1094C78.3333 62.1094 78.776 62.0625 79.2031 61.9688C79.6406 61.875 80.0417 61.7708 80.4062 61.6562C80.6979 62.2917 80.9635 62.9896 81.2031 63.75C79.974 64.1667 78.7344 64.375 77.4844 64.375C76.5781 64.375 75.849 64.2708 75.2969 64.0625C74.7552 63.8646 74.3281 63.5365 74.0156 63.0781C73.6927 62.599 73.4792 62.026 73.375 61.3594C73.2708 60.6927 73.2188 59.7708 73.2188 58.5938V50.0156H70.875V47.75H73.2188V44.0312ZM85.3594 41.5H88.0469V51.2969C88.7448 50.1094 89.5365 49.1823 90.4219 48.5156C91.4323 47.7656 92.4375 47.3906 93.4375 47.3906C94.9375 47.3906 96.1042 47.7656 96.9375 48.5156C97.6562 49.1615 98.151 50.1354 98.4219 51.4375C98.6302 52.4271 98.7344 53.7604 98.7344 55.4375V64H96.0469V54.6875C96.0469 54.0521 96.0312 53.5312 96 53.125C95.9688 52.7083 95.8906 52.276 95.7656 51.8281C95.651 51.3698 95.4792 51.0156 95.25 50.7656C95.0312 50.5052 94.7188 50.2917 94.3125 50.125C93.9167 49.9583 93.4323 49.875 92.8594 49.875C91.8698 49.875 90.9167 50.3438 90 51.2812C89.4167 51.875 88.7656 52.7812 88.0469 54V64H85.3594V41.5ZM115.531 63.0938C114.375 63.5521 113.286 63.8802 112.266 64.0781C111.255 64.276 110.349 64.375 109.547 64.375C108.318 64.375 107.245 64.1823 106.328 63.7969C105.411 63.401 104.646 62.849 104.031 62.1406C103.427 61.4323 102.969 60.5885 102.656 59.6094C102.354 58.6198 102.203 57.5312 102.203 56.3438C102.203 55.6146 102.255 54.8854 102.359 54.1562C102.464 53.4271 102.63 52.7344 102.859 52.0781C103.089 51.4115 103.385 50.7917 103.75 50.2188C104.125 49.6458 104.578 49.151 105.109 48.7344C105.641 48.3177 106.26 47.9896 106.969 47.75C107.677 47.5104 108.484 47.3906 109.391 47.3906C111.714 47.3906 113.464 48.1198 114.641 49.5781C115.818 51.026 116.406 53.1042 116.406 55.8125V56.6719H104.969C104.969 57.5469 105.062 58.3229 105.25 59C105.438 59.6667 105.724 60.2344 106.109 60.7031C106.505 61.1615 107 61.5104 107.594 61.75C108.198 61.9896 108.911 62.1094 109.734 62.1094C110.193 62.1094 110.646 62.0781 111.094 62.0156C111.552 61.9427 111.995 61.8542 112.422 61.75C112.849 61.6354 113.255 61.5104 113.641 61.375C114.036 61.2396 114.406 61.1094 114.75 60.9844L115.531 63.0938ZM113.703 54.5156C113.62 52.8281 113.214 51.599 112.484 50.8281C111.766 50.0469 110.734 49.6562 109.391 49.6562C108.047 49.6562 107.021 50.0469 106.312 50.8281C105.615 51.599 105.193 52.8281 105.047 54.5156H113.703ZM123.516 51.5156C123.839 50.8698 124.182 50.2865 124.547 49.7656C124.922 49.2448 125.333 48.8021 125.781 48.4375C126.188 48.0833 126.635 47.8229 127.125 47.6562C127.615 47.4792 128.172 47.3906 128.797 47.3906C129.005 47.3906 129.245 47.401 129.516 47.4219C129.797 47.4427 130.062 47.4792 130.312 47.5312C130.271 48.0521 130.219 48.5417 130.156 49C130.104 49.4583 130.031 49.9219 129.938 50.3906C129.417 50.2969 128.938 50.2292 128.5 50.1875C128.073 50.1458 127.667 50.1562 127.281 50.2188C126.823 50.3021 126.422 50.4583 126.078 50.6875C125.745 50.9062 125.432 51.2031 125.141 51.5781C124.859 51.9427 124.583 52.3854 124.312 52.9062C124.042 53.4167 123.745 54.0052 123.422 54.6719V64H120.734V53.9844C120.734 53.3281 120.724 52.75 120.703 52.25C120.693 51.75 120.661 51.276 120.609 50.8281C120.568 50.3698 120.5 49.9219 120.406 49.4844C120.312 49.0365 120.188 48.5417 120.031 48C120.469 47.8854 120.896 47.7812 121.312 47.6875C121.74 47.5938 122.172 47.5052 122.609 47.4219C122.755 47.8385 122.87 48.2083 122.953 48.5312C123.047 48.8542 123.12 49.1719 123.172 49.4844C123.224 49.7865 123.26 50.099 123.281 50.4219C123.312 50.7344 123.344 51.099 123.375 51.5156H123.516Z" fill="#FFAC01"/>
</g>
<defs>
<filter id="filter0_d_596_536" x="0.1875" y="10.5" width="134.078" height="30.875" filterUnits="userSpaceOnUse" color-interpolation-filters="sRGB">
<feFlood flood-opacity="0" result="BackgroundImageFix"/>
<feColorMatrix in="SourceAlpha" type="matrix" values="0 0 0 0 0 0 0 0 0 0 0 0 0 0 0 0 0 0 127 0" result="hardAlpha"/>
<feOffset dy="4"/>
<feGaussianBlur stdDeviation="2"/>
<feComposite in2="hardAlpha" operator="out"/>
<feColorMatrix type="matrix" values="0 0 0 0 0 0 0 0 0 0 0 0 0 0 0 0 0 0 0.25 0"/>
<feBlend mode="normal" in2="BackgroundImageFix" result="effect1_dropShadow_596_536"/>
<feBlend mode="normal" in="SourceGraphic" in2="effect1_dropShadow_596_536" result="shape"/>
</filter>
<filter id="filter1_d_596_536" x="141" y="9" width="63" height="63" filterUnits="userSpaceOnUse" color-interpolation-filters="sRGB">
<feFlood flood-opacity="0" result="BackgroundImageFix"/>
<feColorMatrix in="SourceAlpha" type="matrix" values="0 0 0 0 0 0 0 0 0 0 0 0 0 0 0 0 0 0 127 0" result="hardAlpha"/>
<feOffset dx="2" dy="2"/>
<feGaussianBlur stdDeviation="2"/>
<feComposite in2="hardAlpha" operator="out"/>
<feColorMatrix type="matrix" values="0 0 0 0 0 0 0 0 0 0 0 0 0 0 0 0 0 0 0.25 0"/>
<feBlend mode="normal" in2="BackgroundImageFix" result="effect1_dropShadow_596_536"/>
<feBlend mode="normal" in="SourceGraphic" in2="effect1_dropShadow_596_536" result="shape"/>
</filter>
<filter id="filter2_d_596_536" x="28.8281" y="41.1875" width="105.484" height="31.1875" filterUnits="userSpaceOnUse" color-interpolation-filters="sRGB">
<feFlood flood-opacity="0" result="BackgroundImageFix"/>
<feColorMatrix in="SourceAlpha" type="matrix" values="0 0 0 0 0 0 0 0 0 0 0 0 0 0 0 0 0 0 127 0" result="hardAlpha"/>
<feOffset dy="4"/>
<feGaussianBlur stdDeviation="2"/>
<feComposite in2="hardAlpha" operator="out"/>
<feColorMatrix type="matrix" values="0 0 0 0 0 0 0 0 0 0 0 0 0 0 0 0 0 0 0.25 0"/>
<feBlend mode="normal" in2="BackgroundImageFix" result="effect1_dropShadow_596_536"/>
<feBlend mode="normal" in="SourceGraphic" in2="effect1_dropShadow_596_536" result="shape"/>
</filter>
<linearGradient id="paint0_linear_596_536" x1="198" y1="66" x2="143" y2="11" gradientUnits="userSpaceOnUse">
<stop offset="0.25" stop-color="#0090E0"/>
<stop offset="1" stop-color="#306989"/>
</linearGradient>
</defs>
</svg>
