<svg width="57" height="57" viewBox="0 0 57 57" fill="none" xmlns="http://www.w3.org/2000/svg">
<path d="M18.9948 45.5911C18.9948 45.8227 18.7351 46.008 18.4077 46.008C18.0351 46.0427 17.7755 45.8574 17.7755 45.5911C17.7755 45.3595 18.0351 45.1742 18.3625 45.1742C18.7013 45.1395 18.9948 45.3248 18.9948 45.5911ZM15.4835 45.07C15.4045 45.3016 15.6303 45.568 15.969 45.6374C16.2625 45.7532 16.6013 45.6374 16.669 45.4058C16.7367 45.1742 16.5222 44.9079 16.1835 44.8037C15.89 44.7226 15.5625 44.8384 15.4835 45.07ZM20.4738 44.8732C20.1464 44.9542 19.9206 45.1742 19.9545 45.4406C19.9884 45.6722 20.2819 45.8227 20.6206 45.7417C20.948 45.6606 21.1738 45.4406 21.14 45.209C21.1061 44.989 20.8013 44.8384 20.4738 44.8732ZM27.9029 0.5C12.2432 0.5 0.26416 12.6934 0.26416 28.7543C0.26416 41.5961 8.14481 52.5852 19.4013 56.4528C20.8464 56.7192 21.3545 55.8044 21.3545 55.0517C21.3545 54.3337 21.3206 50.3735 21.3206 47.9418C21.3206 47.9418 13.4174 49.6787 11.7577 44.491C11.7577 44.491 10.4706 41.1214 8.619 40.2529C8.619 40.2529 6.03351 38.4349 8.79964 38.4696C8.79964 38.4696 11.6109 38.7012 13.1577 41.4572C15.6303 45.9269 19.7738 44.6416 21.3884 43.8773C21.648 42.0246 22.3819 40.7392 23.1948 39.975C16.8835 39.2571 10.5158 38.3191 10.5158 27.1795C10.5158 23.9951 11.3738 22.3971 13.1803 20.3591C12.8867 19.6064 11.9271 16.5031 13.4738 12.4965C15.8335 11.7438 21.2642 15.623 21.2642 15.623C23.5222 14.9746 25.9496 14.6387 28.3545 14.6387C30.7593 14.6387 33.1867 14.9746 35.4448 15.623C35.4448 15.623 40.8755 11.7323 43.2351 12.4965C44.7819 16.5146 43.8222 19.6064 43.5287 20.3591C45.3351 22.4087 46.4416 24.0067 46.4416 27.1795C46.4416 38.3538 39.7916 39.2455 33.4803 39.975C34.519 40.8898 35.3996 42.6267 35.3996 45.3479C35.3996 49.2503 35.3658 54.079 35.3658 55.0285C35.3658 55.7812 35.8851 56.696 37.319 56.4297C48.6093 52.5852 56.2642 41.5961 56.2642 28.7543C56.2642 12.6934 43.5625 0.5 27.9029 0.5ZM11.2384 40.4382C11.0916 40.554 11.1255 40.8203 11.3174 41.0403C11.498 41.2256 11.7577 41.3067 11.9045 41.1561C12.0513 41.0403 12.0174 40.774 11.8255 40.554C11.6448 40.3687 11.3851 40.2876 11.2384 40.4382ZM10.019 39.5002C9.93997 39.6508 10.0529 39.836 10.2787 39.9518C10.4593 40.0676 10.6851 40.0329 10.7642 39.8708C10.8432 39.7202 10.7303 39.535 10.5045 39.4192C10.2787 39.3497 10.098 39.3844 10.019 39.5002ZM13.6771 43.6226C13.4964 43.7731 13.5642 44.1205 13.8238 44.3405C14.0835 44.6068 14.4109 44.6416 14.5577 44.4563C14.7045 44.3058 14.6367 43.9584 14.4109 43.7384C14.1625 43.472 13.8238 43.4373 13.6771 43.6226ZM12.39 41.9204C12.2093 42.0362 12.2093 42.3372 12.39 42.6036C12.5706 42.8699 12.8755 42.9857 13.0222 42.8699C13.2029 42.7194 13.2029 42.4183 13.0222 42.152C12.8642 41.8856 12.5706 41.7698 12.39 41.9204Z" fill="#306989"/>
</svg>
